<?xml version="1.0" encoding="utf-8"?><svg viewBox="0 0 512 512" xmlns="http://www.w3.org/2000/svg" xmlns:xlink="http://www.w3.org/1999/xlink"><style>:root>svg{display:none}:root>svg:target{display:block}</style><svg viewBox="0 0 512 512" id="codepen" xmlns="http://www.w3.org/2000/svg"><path d="M241.239 303.936c-15.322-10.357-30.742-20.569-46.062-30.93-2.03-1.373-3.43-1.472-5.502-.029l-38.871 26.154C181.966 319.905 244 361.317 244 361.317v-53.786c-.012-1.224-1.553-2.78-2.761-3.595zm-46.147-63.27c15.454-10.16 30.851-20.409 46.109-30.86 1.486-1.018 2.775-3.509 2.799-5.334v-51.706s-62.033 41.124-93.262 61.942c13.7 9.159 26.671 17.913 39.787 26.443 1.02.662 3.396.284 4.567-.485zm74.746-31.312a4521.517 4521.517 0 0047.627 31.815c.916.604 2.92.602 3.839 0l39.751-26.467L268 152.484v53.35c.01 1.201.805 2.821 1.838 3.52zm-11.729 21.015c-1.21-.802-3.611-.528-4.743.168-4.817 2.962-9.463 6.203-14.164 9.355-8.248 5.53-25.356 17.023-25.356 17.023l38.842 25.865c1.748 1.157 4.436 1.22 6.26.111l39.014-25.993c.001 0-34.079-22.701-39.853-26.529zM141 237.116v39.609l29.622-19.838z"/><path d="M256 32C132.288 32 32 132.288 32 256s100.288 224 224 224 224-100.288 224-224S379.712 32 256 32zm139 265.006c0 5.785-2.652 9.868-7.511 13.094a38019.909 38019.909 0 00-123.286 82.188c-5.854 3.918-11.174 3.754-16.984-.137-40.783-27.314-81.719-54.546-122.625-81.676-5.11-3.389-7.594-7.557-7.594-13.73v-79.729c0-6.141 2.521-10.332 7.624-13.716 40.906-27.13 81.939-54.363 122.724-81.676 5.818-3.896 11.094-4.007 16.938-.095a41090.004 41090.004 0 00123.261 82.195c4.678 3.106 7.453 6.943 7.453 12.66v80.622z"/><path d="M316.247 273.234a3826.352 3826.352 0 01-45.386 30.332c-2.412 1.588-2.888 3.318-2.861 6.189v51.346l93.039-62.004-38.527-25.882c-2.345-1.604-3.93-1.567-6.265.019zM370 276.676V237.06l-29.59 19.873z"/></svg><svg viewBox="0 0 64 64" id="github-black" xmlns="http://www.w3.org/2000/svg"><path d="M32 6C17.641 6 6 17.641 6 32c0 12.277 8.512 22.56 19.955 25.286a26.376 26.376 0 01-1.755-.479V50.85s-.975.325-2.275.325c-3.637 0-5.148-3.245-5.525-4.875-.229-.993-.827-1.934-1.469-2.509-.767-.684-1.126-.686-1.131-.92-.01-.491.658-.471.975-.471 1.625 0 2.857 1.729 3.429 2.623 1.417 2.207 2.938 2.577 3.721 2.577.975 0 1.817-.146 2.397-.426.268-1.888 1.108-3.57 2.478-4.774-6.097-1.219-10.4-4.716-10.4-10.4 0-2.928 1.175-5.619 3.133-7.792-.2-.567-.533-1.714-.533-3.583 0-1.235.086-2.751.65-4.225 0 0 3.708.026 7.205 3.338C28.469 19.268 30.196 19 32 19s3.531.268 5.145.738c3.497-3.312 7.205-3.338 7.205-3.338.567 1.474.65 2.99.65 4.225 0 2.015-.268 3.19-.432 3.697C46.466 26.475 47.6 29.124 47.6 32c0 5.684-4.303 9.181-10.4 10.4 1.628 1.43 2.6 3.513 2.6 5.85v8.557c-.576.181-1.162.338-1.755.479C49.488 54.56 58 44.277 58 32 58 17.641 46.359 6 32 6zm1.813 51.93zm3.973-.584zM32 58zm-2.212-.1z"/></svg><svg preserveAspectRatio="xMidYMid" viewBox="0 0 256 256" id="skype-black" xmlns="http://www.w3.org/2000/svg"><path d="M246.939 149.01c-.081.45-.138.905-.223 1.355l-.438-2.579c.24.402.438.82.661 1.225a121.489 121.489 0 002.015-21.913c0-16.318-3.195-32.15-9.507-47.053-6.09-14.396-14.802-27.325-25.91-38.425-11.092-11.1-24.03-19.813-38.418-25.902-14.899-6.304-30.73-9.499-47.048-9.499-7.69 0-15.394.722-22.89 2.161-.016.004-.036.004-.057.008.422.223.848.422 1.261.653l-2.542-.398c.426-.08.856-.17 1.281-.255C94.84 2.92 83.272 0 71.564 0 52.45 0 34.477 7.443 20.96 20.964 7.447 34.481 0 52.453 0 71.568a71.498 71.498 0 009.004 34.696c.077-.438.13-.88.215-1.318l.438 2.534c-.227-.397-.426-.811-.653-1.216a121.745 121.745 0 00-1.82 20.834c0 16.322 3.195 32.15 9.507 47.057 6.081 14.4 14.798 27.32 25.894 38.42 11.108 11.101 24.029 19.826 38.433 25.899 14.9 6.316 30.735 9.515 47.053 9.515 7.103 0 14.222-.649 21.17-1.881-.405-.227-.818-.434-1.232-.673l2.583.454c-.446.085-.896.138-1.35.219a71.506 71.506 0 0035.206 9.276c19.111 0 37.075-7.432 50.592-20.956 13.52-13.509 20.96-31.485 20.96-50.6a71.57 71.57 0 00-9.061-34.817zm-118.386 52.121c-42.945 0-62.158-21.114-62.158-36.937 0-8.117 5.992-13.805 14.25-13.805 18.378 0 13.618 26.389 47.908 26.389 17.555 0 27.248-9.532 27.248-19.286 0-5.866-2.894-12.37-14.453-15.22l-38.198-9.535c-30.763-7.715-36.346-24.345-36.346-39.978 0-32.457 30.56-44.644 59.26-44.644 26.437 0 57.602 14.611 57.602 34.083 0 8.344-7.225 13.196-15.48 13.196-15.685 0-12.798-21.71-44.392-21.71-15.678 0-24.362 7.1-24.362 17.259 0 10.14 12.382 13.379 23.133 15.827l28.274 6.276c30.97 6.9 38.823 24.982 38.823 42.013 0 26.377-20.247 46.072-61.109 46.072zm19.456 44.304c.414.24.827.446 1.233.673.454-.081.904-.134 1.35-.22l-2.583-.453zm98.707-95.07c.085-.45.142-.904.223-1.354-.223-.406-.422-.823-.66-1.225l.437 2.579zM9.219 104.946c-.085.438-.138.88-.215 1.318.227.405.426.819.653 1.216l-.438-2.534zm97.166-95.905c-.413-.231-.839-.43-1.26-.653-.426.085-.856.174-1.282.255l2.542.398z"/></svg><svg viewBox="0 0 32 32" id="telegram-black" xmlns="http://www.w3.org/2000/svg"><path d="M16 .5C7.4.5.5 7.4.5 16S7.4 31.5 16 31.5 31.5 24.6 31.5 16 24.6.5 16 .5zm7.6 10.6l-2.5 12c-.2.9-.7 1.1-1.4.7l-3.9-2.9-1.9 1.8c-.2.2-.4.4-.8.4l.3-3.9 7.2-6.5c.3-.3-.1-.4-.5-.2l-8.9 5.6-3.8-1.2c-.8-.3-.8-.8.2-1.2l14.9-5.8c.7-.3 1.3.2 1.1 1.2z"/></svg></svg>